<?xml version="1.0" encoding="utf-8"?>
<!-- Generator: Adobe Illustrator 13.0.2, SVG Export Plug-In . SVG Version: 6.00 Build 14948)  -->
<!DOCTYPE svg PUBLIC "-//W3C//DTD SVG 1.1//EN" "http://www.w3.org/Graphics/SVG/1.1/DTD/svg11.dtd">
<svg version="1.1" id="Layer_1" xmlns="http://www.w3.org/2000/svg" xmlns:xlink="http://www.w3.org/1999/xlink" x="0px" y="0px"
	 width="150px" height="150px" viewBox="0 0 150 150" enable-background="new 0 0 150 150" xml:space="preserve">
<path fill="#C18B2F" d="M11.41,68.082c0.583-0.722,0.084-2.538-0.83-2.405c-1.108,0.162-2.45,0.716-2.688,1.796
	C7.614,68.692,10.616,69.079,11.41,68.082z M77.256,135.197c6.007-0.142,11.502-0.972,16.867-3.865
	c4.189-2.251,7.081-5.719,11.633-7.031c0.785-0.228,1.348,1.119,2.104,0.818c1.885-0.756,3.144-2.104,4.84-3.234
	c3.596-2.402,7.044-4.349,9.53-7.851c0.943-1.324,0.808-2.967,1.859-4.2c0.603-0.714,1.272-1.197,1.812-1.956
	c2.269-3.2,5.11-5.616,6.208-9.331c2.763-9.368,4.826-18,3.422-27.476c-1.791-12.051-3.181-23.361-10.414-33.041
	c-1.824-2.443-3.797-4.205-5.866-6.449c-1.183-1.279-0.893-3.301-2.194-4.454c-1.756-1.553-4.144-1.512-6.31-2.457
	c-1.282-0.559-2.492-0.788-3.859-1.122c-9.393-2.285-17.304-5.838-27.088-5.609c-4.187,0.101-7.748,2.544-11.881,2.012
	c-1.668-0.214-2.511-1.778-4.006-2.508c-3.1-1.511-5.778-3.934-9.286-3.425c-1.195,0.176-2.44-0.004-3.374,0.776
	c-1.103,0.914-1.756,1.997-2.545,3.181c-1.756,2.64-0.837,5.77-1.954,8.714c-0.786,2.079-3.435,2.424-5.375,3.592
	c-4.149,2.493-6.176,6.534-9.925,9.594c-1.958,1.601-4.747,1.212-6.598,2.928c-0.83,0.769-0.395,2.113-1.127,2.973
	c-3.655,4.311-6.149,8.72-7.724,14.054c-5.283,17.897-2.016,36.559,8.063,51.649C35.242,128.2,56.451,135.684,77.256,135.197z
	 M42.355,66.669c1.573,1.296-0.665,6.182-2.591,5.432C37.84,71.355,40.786,65.364,42.355,66.669z M34.536,85.226
	c0.446-1.021,0.67-1.95,1.121-2.973c0.507-1.154,0.56-2.26,0.78-3.484c0.211-1.172-0.893-2.118-0.631-3.28
	c0.391-1.739,3.355-0.108,5.133-0.466c2.198-0.449,5.328-1.404,5.375-3.596c0.026-1.114-2.275-1.089-2.248-2.197
	c0.07-3.161,0.257-5.869,0.197-9.021c-0.082-4.312-2.958-8.649-0.442-12.301c3.065-4.438,7.913-6.507,12.905-8.618
	c4.745-2.015,8.889-3.692,13.886-4.837c6.4-1.469,12.394-0.925,18.526,0.954c6.869,2.104,11.736,6.26,17.254,10.688
	c2.197,1.767,4.764,2.416,6.793,4.352c0.449,0.421-0.824,1.313-0.387,1.745c3.411,3.337,5.113,7.393,6.452,11.986
	c5.173,17.718-2.063,39.171-17.014,51.365c-12.479,10.178-29.377,11.195-44.875,8.507c-6.351-1.106-11.134-5.04-15.152-9.877
	c-5.67-6.815-14.072-13.154-12.417-22.073C30.317,89.278,33.361,87.88,34.536,85.226z M19.232,90.268
	c-1.965-2.938-2.643-10.874,0.931-10.252c0.65,0.114,0.666,0.998,1.025,1.538c2.096,3.132,3.587,8.714,0.295,10.914
	C20.518,93.11,19.84,91.18,19.232,90.268z M24.464,93.437c0.385,0.293-0.167,1.015,0.145,1.382c0.85,1.003,1.811,2.123,1.517,3.436
	c-0.263,1.16-2.544,1.584-3.373,0.773C21.328,97.629,22.866,92.234,24.464,93.437z M28.763,106.854
	c2.007,0.898,4.038,3.548,2.886,5.483C30.494,114.276,26.758,105.965,28.763,106.854z M34.631,113.312
	c0.641,0.15,0.443,1.233,1.026,1.532c6.638,3.385,9.781,12.252,17.403,12.079c0.995-0.025-1.909-0.531-2.444-1.333
	c-2.041-3.053,9.975-0.983,10.363,2.703c0.715,6.744-13.522-0.5-19.164-4.229c-3.782-2.501-8.481-3.862-10.07-8.086
	C31.285,114.748,33.325,113,34.631,113.312z"/>
</svg>
